<?xml version="1.0" standalone="no"?>
<!DOCTYPE svg PUBLIC "-//W3C//DTD SVG 20010904//EN"
 "http://www.w3.org/TR/2001/REC-SVG-20010904/DTD/svg10.dtd">
<svg version="1.0" xmlns="http://www.w3.org/2000/svg"
 width="300.000000pt" height="196.000000pt" viewBox="0 0 300.000000 196.000000"
 preserveAspectRatio="xMidYMid meet">
<metadata>
Created by potrace 1.10, written by Peter Selinger 2001-2011
</metadata>
<g transform="translate(0.000000,196.000000) scale(0.100000,-0.100000)"
fill="#000000" stroke="none">
<path d="M1846 1609 c-199 -47 -342 -262 -307 -462 20 -118 57 -169 276 -388
l199 -198 76 222 75 222 -113 3 c-103 2 -113 4 -107 20 3 9 18 52 33 94 l27
78 118 0 c75 0 117 4 117 10 0 6 14 51 31 100 l32 90 94 0 c87 0 95 -2 88 -17
-4 -10 -20 -55 -35 -100 l-29 -83 110 0 c60 0 109 -2 109 -5 0 -4 -14 -46 -31
-95 l-32 -90 -111 0 -111 0 -81 -238 c-45 -130 -85 -245 -89 -254 -6 -16 -3
-17 26 -12 67 13 113 47 282 210 234 225 256 249 291 324 29 60 31 73 31 170
0 99 -2 109 -34 174 -42 87 -108 153 -193 195 -115 57 -269 53 -377 -11 -35
-20 -35 -20 -70 0 -84 47 -201 63 -295 41z m254 -58 l72 -31 61 24 c147 58
226 58 343 1 85 -42 135 -93 177 -183 25 -55 30 -77 31 -146 1 -93 -18 -155
-70 -227 -33 -46 -360 -364 -417 -406 -27 -20 -57 -30 -57 -19 0 3 55 167 110
326 12 36 29 70 36 76 8 7 52 11 100 12 78 0 88 2 109 23 24 26 65 132 65 170
0 47 -21 58 -115 60 -33 1 -63 6 -66 11 -4 6 2 32 12 59 40 104 19 129 -106
129 -97 0 -109 -9 -145 -110 -13 -36 -28 -71 -33 -77 -6 -9 -40 -13 -101 -13
-108 0 -126 -9 -150 -77 -10 -26 -20 -55 -23 -63 -13 -33 -13 -76 0 -94 11
-16 27 -19 91 -19 54 0 79 -4 83 -13 5 -14 -93 -313 -108 -328 -12 -13 -361
339 -386 389 -55 112 -58 248 -6 350 96 186 299 258 493 176z"/>
<path d="M924 1596 c-13 -33 0 -51 36 -51 32 0 35 2 35 30 0 27 -4 30 -33 33
-22 2 -34 -2 -38 -12z"/>
<path d="M802 1453 c3 -146 3 -148 26 -151 46 -7 52 11 52 144 0 133 -7 154
-56 154 l-25 0 3 -147z"/>
<path d="M1328 1589 c-10 -5 -20 -25 -24 -43 -4 -22 -13 -36 -25 -39 -26 -7
-25 -47 1 -54 17 -5 20 -14 20 -68 0 -69 13 -89 52 -83 21 3 23 8 26 75 3 65
5 72 25 75 35 5 30 51 -5 58 -35 6 -22 33 13 28 27 -4 38 24 19 47 -14 17 -76
19 -102 4z m32 -88 c20 -39 -13 -69 -40 -36 -10 13 -10 19 5 35 22 24 22 24
35 1z"/>
<path d="M296 1558 c-12 -16 -16 -47 -16 -115 0 -109 10 -143 43 -143 32 0 47
18 47 57 0 43 13 42 40 -2 33 -54 69 -68 106 -41 18 14 18 16 -15 50 l-34 35
25 21 c34 26 42 62 24 104 -17 41 -57 56 -148 56 -47 0 -59 -4 -72 -22z m139
-78 c0 -21 -5 -26 -32 -28 -31 -3 -33 -1 -33 28 0 29 2 31 33 28 27 -2 32 -7
32 -28z m-83 -47 c17 -15 17 -17 2 -35 -25 -27 -34 -22 -34 17 0 39 5 42 32
18z"/>
<path d="M613 1506 c-78 -35 -83 -160 -8 -194 37 -17 106 -15 133 4 46 32 11
74 -38 46 -23 -13 -33 -14 -54 -4 -46 21 -29 32 49 32 67 0 75 2 75 19 0 78
-84 129 -157 97z m68 -46 c30 -17 23 -28 -21 -32 -43 -4 -55 12 -22 31 21 13
20 13 43 1z"/>
<path d="M1093 1505 c-63 -27 -83 -130 -34 -178 28 -28 121 -36 156 -13 49 32
16 77 -35 48 -23 -13 -33 -14 -54 -4 -46 21 -29 32 49 32 69 0 75 2 75 20 0
37 -30 81 -65 96 -42 17 -51 17 -92 -1z m73 -52 c17 -17 16 -18 -22 -23 -43
-6 -56 6 -28 27 23 17 29 17 50 -4z"/>
<path d="M925 1497 c-3 -7 -5 -54 -3 -103 3 -87 3 -89 29 -92 41 -5 50 16 47
115 l-3 88 -33 3 c-21 2 -34 -2 -37 -11z"/>
<path d="M834 1256 c-58 -25 -50 -107 11 -122 91 -23 144 87 59 122 -39 16
-32 16 -70 0z m50 -32 c18 -7 22 -39 6 -49 -6 -3 -19 -3 -30 0 -22 7 -27 40
-7 48 6 3 13 6 14 6 1 1 8 -2 17 -5z"/>
<path d="M1277 1233 c-4 -3 -7 -47 -7 -96 0 -88 -1 -90 -19 -73 -53 48 -152
39 -207 -20 -107 -113 -34 -334 110 -334 47 0 106 31 107 57 0 11 6 5 15 -14
13 -31 17 -33 64 -33 39 0 51 4 60 20 7 14 10 96 8 241 -3 218 -3 221 -27 240
-23 18 -90 26 -104 12z m84 -50 c11 -12 14 -61 15 -210 1 -183 0 -195 -19
-208 -20 -14 -32 -11 -71 17 -17 14 -17 16 -2 46 9 17 16 54 16 82 0 44 -4 56
-29 79 -44 41 -94 40 -137 -3 -30 -30 -34 -40 -34 -84 0 -62 26 -97 83 -113
39 -10 40 -12 22 -25 -25 -19 -85 -18 -113 2 -41 28 -62 85 -57 154 3 54 8 67
36 96 40 42 87 52 133 30 19 -9 41 -16 48 -16 29 0 47 35 52 100 2 36 5 66 5
68 3 9 41 -1 52 -15z m-117 -214 c21 -17 26 -29 26 -65 0 -53 -26 -84 -70 -84
-77 0 -99 131 -27 160 33 13 42 12 71 -11z"/>
<path d="M432 1192 c-7 -5 -50 -105 -96 -223 -74 -190 -82 -216 -69 -231 21
-23 61 -31 94 -18 25 11 59 62 59 89 0 7 30 11 84 11 l84 0 7 -30 c7 -31 56
-80 81 -80 24 0 84 28 84 40 0 21 -170 434 -182 442 -17 10 -129 10 -146 0z
m126 -47 c11 -13 30 -50 42 -82 12 -32 28 -71 35 -88 66 -153 83 -210 63 -217
-23 -9 -46 6 -77 50 -33 45 -39 47 -145 43 -53 -1 -76 -15 -104 -63 -20 -34
-41 -43 -59 -26 -13 14 2 67 52 183 9 22 31 76 48 120 23 57 39 83 57 92 38
19 67 16 88 -12z"/>
<path d="M474 1058 c-45 -51 -57 -123 -26 -151 11 -10 35 -17 60 -17 33 0 45
5 57 24 20 30 12 83 -19 129 -27 40 -46 44 -72 15z m62 -75 l22 -61 -54 0
c-47 1 -54 3 -48 17 3 9 15 43 27 76 11 33 23 53 25 45 3 -8 15 -43 28 -77z"/>
<path d="M816 1074 c-13 -13 -16 -42 -16 -165 0 -85 5 -159 10 -170 8 -15 21
-19 60 -19 39 0 52 4 60 19 5 11 10 85 10 170 0 123 -3 152 -16 165 -20 21
-88 21 -108 0z m79 -34 c9 -14 10 -254 1 -268 -11 -18 -44 -14 -55 6 -12 23
-11 243 2 260 11 14 43 16 52 2z"/>
<path d="M267 643 c-4 -3 -7 -37 -7 -75 0 -54 3 -68 15 -68 11 0 15 13 16 53
l1 52 14 -32 c21 -48 32 -49 54 -1 l20 43 0 -57 c0 -32 5 -58 10 -58 6 0 10
32 10 75 0 90 -18 101 -46 29 l-18 -46 -23 46 c-23 45 -33 53 -46 39z"/>
<path d="M440 575 c0 -43 4 -75 10 -75 6 0 10 32 10 75 0 43 -4 75 -10 75 -6
0 -10 -32 -10 -75z"/>
<path d="M500 576 c0 -44 4 -76 10 -76 6 0 10 25 10 57 l0 56 41 -56 c22 -32
44 -57 50 -57 5 0 9 34 9 75 0 87 -18 102 -22 19 l-3 -55 -35 52 c-52 77 -60
75 -60 -15z"/>
<path d="M660 575 c0 -43 4 -75 10 -75 6 0 10 32 10 75 0 43 -4 75 -10 75 -6
0 -10 -32 -10 -75z"/>
<path d="M724 629 c-23 -26 -10 -50 34 -64 40 -11 45 -45 8 -45 -14 0 -28 5
-31 10 -9 15 -25 12 -25 -5 0 -8 11 -17 24 -21 86 -21 122 56 37 80 -32 9 -42
33 -17 42 8 3 24 1 35 -5 12 -7 22 -7 26 -2 7 12 -26 31 -53 31 -10 0 -27 -9
-38 -21z"/>
<path d="M835 640 c-8 -12 20 -25 35 -15 6 4 10 -16 10 -59 0 -52 3 -66 15
-66 12 0 15 14 15 63 0 54 3 63 18 63 9 -1 18 4 20 9 3 14 -104 19 -113 5z"/>
<path d="M987 643 c-11 -10 -8 -143 3 -143 6 0 10 14 10 30 0 17 4 30 9 30 5
0 19 -13 31 -30 12 -16 28 -30 36 -30 13 0 12 5 -5 28 -19 28 -19 28 0 40 26
16 24 47 -3 66 -23 16 -69 21 -81 9z m57 -19 c25 -10 19 -41 -9 -46 -30 -6
-35 -2 -35 29 0 23 14 29 44 17z"/>
<path d="M1120 575 c0 -43 4 -75 10 -75 6 0 10 32 10 75 0 43 -4 75 -10 75 -6
0 -10 -32 -10 -75z"/>
<path d="M1180 576 l0 -76 55 0 c30 0 55 5 55 10 0 6 -20 10 -45 10 -41 0 -45
2 -45 24 0 20 5 24 28 22 15 0 27 4 27 9 0 6 -12 9 -27 7 -23 -2 -28 2 -28 20
0 20 5 23 37 23 59 0 55 20 -4 23 l-53 3 0 -75z"/>
<path d="M1326 637 c-29 -21 -17 -58 24 -72 19 -7 35 -18 35 -26 0 -17 -41
-24 -59 -10 -17 14 -29 2 -15 -16 12 -14 56 -17 83 -7 9 4 16 18 16 34 0 22
-7 30 -40 43 -22 8 -40 20 -40 27 0 17 31 24 51 12 24 -15 29 -15 29 2 0 26
-54 35 -84 13z"/>
<path d="M1359 414 c-37 -24 -70 -77 -76 -123 -7 -49 8 -71 47 -71 32 0 90 44
90 67 0 10 -11 5 -36 -17 -68 -59 -108 -17 -62 64 25 42 73 84 85 73 4 -4 1
-13 -5 -19 -16 -16 -15 -28 3 -28 16 0 31 43 20 59 -9 15 -36 13 -66 -5z"/>
<path d="M1822 388 c-16 -8 -22 -19 -20 -34 3 -24 -27 -64 -48 -64 -13 0 -8
36 8 57 6 7 5 14 -3 18 -14 9 -26 -9 -34 -53 -8 -43 5 -58 35 -42 16 9 25 9
35 0 22 -18 55 -3 55 25 0 13 -4 27 -10 30 -15 9 -12 42 5 49 9 3 15 0 15 -9
0 -18 16 -20 26 -3 4 6 -1 17 -11 25 -22 15 -23 15 -53 1z"/>
<path d="M1642 374 c-16 -11 -21 -22 -17 -35 4 -13 -2 -27 -21 -44 -33 -31
-40 -26 -25 16 13 39 14 49 2 49 -11 0 -31 -55 -31 -86 0 -26 11 -30 40 -14
13 7 21 7 25 0 9 -15 41 -12 56 6 11 14 10 21 -4 46 -9 16 -15 34 -11 39 7 12
34 12 34 -1 0 -5 5 -10 10 -10 16 0 11 37 -6 44 -23 9 -27 8 -52 -10z"/>
<path d="M415 333 c-61 -63 -72 -156 -21 -169 28 -7 79 17 100 48 21 30 11 36
-17 11 -41 -38 -67 -47 -85 -30 -14 14 -13 20 2 61 16 42 65 96 87 96 12 0 12
-17 -1 -25 -11 -7 -4 -25 9 -25 11 0 32 50 26 61 -14 22 -65 8 -100 -28z"/>
<path d="M1447 353 c-4 -3 -7 -30 -7 -60 0 -53 13 -71 25 -34 6 21 63 75 87
83 7 3 9 9 5 14 -9 9 -77 -24 -77 -38 0 -4 -4 -8 -9 -8 -4 0 -6 11 -3 25 4 24
-7 33 -21 18z"/>
<path d="M821 309 c-41 -44 -35 -109 9 -109 23 0 67 36 58 46 -5 4 -16 0 -26
-9 -10 -10 -24 -17 -30 -17 -22 0 -12 19 18 37 31 18 46 45 35 63 -10 17 -43
11 -64 -11z m43 -14 c-8 -19 -44 -40 -44 -26 0 12 28 41 40 41 5 0 7 -7 4 -15z"/>
<path d="M1070 312 c0 -19 -56 -79 -65 -70 -3 2 0 19 6 37 6 18 8 35 5 38 -11
12 -25 -11 -32 -54 -6 -38 -4 -43 12 -43 11 0 26 4 34 10 9 5 19 5 27 -1 8 -8
19 1 39 30 32 49 44 52 44 12 0 -31 13 -47 30 -36 8 5 7 11 0 20 -7 9 -9 27
-5 45 5 25 3 30 -11 30 -10 0 -29 -10 -42 -22 l-25 -23 6 23 c3 15 1 22 -9 22
-8 0 -14 -8 -14 -18z"/>
<path d="M687 313 c-4 -3 -7 -14 -7 -23 0 -21 -37 -70 -52 -70 -7 0 -9 15 -5
40 4 33 2 40 -14 45 -43 14 -79 -19 -93 -83 -11 -48 19 -56 54 -13 l28 32 6
-25 c8 -32 22 -33 53 -4 20 18 23 19 23 5 0 -26 14 -20 34 14 10 17 34 40 52
51 39 23 42 28 15 28 -11 0 -34 -12 -52 -27 -25 -21 -30 -23 -22 -8 15 30 0
59 -20 38z m-104 -54 c-10 -17 -24 -35 -30 -41 -22 -18 -15 16 8 46 28 36 44
33 22 -5z"/>
</g>
</svg>
